<svg xmlns="http://www.w3.org/2000/svg">
  <symbol viewBox="0 0 17.62 14.031" id="icon-shopping-cart">
    <g><path data-name="SHOPPING CART" d="M17.54 3.1l-2.48 5.5a.815.815 0 0 1-.7.484l-7.12.475.41 1.177h7.76a1.65 1.65 0 1 1-1.65 1.651h-7.7a1.65 1.65 0 1 1-1.65-1.651H5.9L2.72 1.661H.83a.825.825 0 0 1 0-1.65h2.48a.835.835 0 0 1 .78.554l.48 1.373h12.21a.826.826 0 0 1 .83.825.941.941 0 0 1-.07.337zm-12.39.487l1.52 4.357 7.09-.473 1.75-3.884H5.15z" fill-rule="evenodd"/></g>
  </symbol>
    <symbol viewBox="0 0 17.62 17.625" id="icon-search">
    <g><path data-name="MAGNIFYING GLASS" d="M17.13 14.795a1.653 1.653 0 0 1-2.34 2.334l-4.83-4.836a6.627 6.627 0 1 1 2.33-2.334l4.84 4.836zM6.61 1.661a4.95 4.95 0 1 0 4.95 4.95 4.953 4.953 0 0 0-4.95-4.95z" fill-rule="evenodd"/></g>
  </symbol>
  <symbol viewBox="0 0 32 30.5" id="icon-alarm">
    <g><path d="M30.74 9.5a15.727 15.727 0 0 0-8.243-8.24A5.868 5.868 0 0 1 30.74 9.5zM30.5 16a14.442 14.442 0 0 1-3.963 9.94l2.029 2.03a1.482 1.482 0 0 1-1.049 2.53 1.51 1.51 0 0 1-1.049-.43l-2.178-2.18a14.471 14.471 0 0 1-16.566.01l-2.163 2.16a1.5 1.5 0 1 1-2.122-2.12l2.012-2.01A14.495 14.495 0 1 1 30.5 16zM16 4.5A11.5 11.5 0 1 0 27.5 16 11.5 11.5 0 0 0 16 4.5zm6 13h-6a1.5 1.5 0 0 1-1.5-1.5V8a1.5 1.5 0 0 1 3 0v6.5H22a1.5 1.5 0 0 1 0 3zM1.287 9.71A6 6 0 0 1 6 0a5.935 5.935 0 0 1 3.706 1.29 16.016 16.016 0 0 0-8.419 8.42z" fill-rule="evenodd"/></g>
  </symbol>
</svg>